<svg version="1.1" viewBox="0.0 0.0 377.9527559055118 377.9527559055118" fill="none" stroke="none" stroke-linecap="square" stroke-miterlimit="10" xmlns:xlink="http://www.w3.org/1999/xlink" xmlns="http://www.w3.org/2000/svg"><clipPath id="p.0"><path d="m0 0l377.95276 0l0 377.95276l-377.95276 0l0 -377.95276z" clip-rule="nonzero"/></clipPath><g clip-path="url(#p.0)"><path fill="#000000" fill-opacity="0.0" d="m0 0l377.95276 0l0 377.95276l-377.95276 0z" fill-rule="evenodd"/><path fill="#000000" fill-opacity="0.0" d="m37.795277 66.14173l302.36218 0l0 302.3622l-302.36218 0z" fill-rule="evenodd"/><path stroke="#000000" stroke-width="12.0" stroke-linejoin="round" stroke-linecap="butt" d="m37.795277 66.14173l302.36218 0l0 302.3622l-302.36218 0z" fill-rule="evenodd"/><path fill="#000000" fill-opacity="0.0" d="m9.448819 188.97638l0 0c0 -99.15034 80.37722 -179.52756 179.52756 -179.52756l0 0c47.613663 0 93.27719 18.914455 126.94516 52.582405c33.66794 33.66795 52.582397 79.33148 52.582397 126.94516l0 0c0 99.15033 -80.37723 179.52756 -179.52756 179.52756l0 0c-99.15034 0 -179.52756 -80.37723 -179.52756 -179.52756z" fill-rule="evenodd"/><path stroke="#000000" stroke-width="12.0" stroke-linejoin="round" stroke-linecap="butt" d="m9.448819 188.97638l0 0c0 -99.15034 80.37722 -179.52756 179.52756 -179.52756l0 0c47.613663 0 93.27719 18.914455 126.94516 52.582405c33.66794 33.66795 52.582397 79.33148 52.582397 126.94516l0 0c0 99.15033 -80.37723 179.52756 -179.52756 179.52756l0 0c-99.15034 0 -179.52756 -80.37723 -179.52756 -179.52756z" fill-rule="evenodd"/><path fill="#000000" fill-opacity="0.0" d="m109.161415 116.25197l0 0c0 -27.675117 17.86631 -50.110237 39.90551 -50.110237l0 0c10.583603 0 20.733719 5.279457 28.217468 14.676949c7.483734 9.397491 11.688049 22.143227 11.688049 35.43329l0 0c0 27.675125 -17.866302 50.11023 -39.905518 50.11023l0 0c-22.0392 0 -39.90551 -22.435104 -39.90551 -50.11023z" fill-rule="evenodd"/><path stroke="#000000" stroke-width="12.0" stroke-linejoin="round" stroke-linecap="butt" d="m109.161415 116.25197l0 0c0 -27.675117 17.86631 -50.110237 39.90551 -50.110237l0 0c10.583603 0 20.733719 5.279457 28.217468 14.676949c7.483734 9.397491 11.688049 22.143227 11.688049 35.43329l0 0c0 27.675125 -17.866302 50.11023 -39.905518 50.11023l0 0c-22.0392 0 -39.90551 -22.435104 -39.90551 -50.11023z" fill-rule="evenodd"/><path fill="#000000" fill-opacity="0.0" d="m188.97493 116.25197l0 0c0 -27.675117 17.866318 -50.110237 39.905518 -50.110237l0 0c10.583603 0 20.733719 5.279457 28.217453 14.676949c7.483734 9.397491 11.688049 22.143227 11.688049 35.43329l0 0c0 27.675125 -17.866302 50.11023 -39.905502 50.11023l0 0c-22.0392 0 -39.905518 -22.435104 -39.905518 -50.11023z" fill-rule="evenodd"/><path stroke="#000000" stroke-width="12.0" stroke-linejoin="round" stroke-linecap="butt" d="m188.97493 116.25197l0 0c0 -27.675117 17.866318 -50.110237 39.905518 -50.110237l0 0c10.583603 0 20.733719 5.279457 28.217453 14.676949c7.483734 9.397491 11.688049 22.143227 11.688049 35.43329l0 0c0 27.675125 -17.866302 50.11023 -39.905502 50.11023l0 0c-22.0392 0 -39.905518 -22.435104 -39.905518 -50.11023z" fill-rule="evenodd"/><path fill="#000000" fill-opacity="0.0" d="m260.34106 164.91628l0 0c0 -27.675125 17.866302 -50.110237 39.905518 -50.110237l0 0c10.583618 0 20.733734 5.279457 28.217468 14.676949c7.483734 9.397491 11.688049 22.143219 11.688049 35.43329l0 0c0 27.67511 -17.866302 50.11023 -39.905518 50.11023l0 0c-22.039215 0 -39.905518 -22.43512 -39.905518 -50.11023z" fill-rule="evenodd"/><path stroke="#000000" stroke-width="12.0" stroke-linejoin="round" stroke-linecap="butt" d="m260.34106 164.91628l0 0c0 -27.675125 17.866302 -50.110237 39.905518 -50.110237l0 0c10.583618 0 20.733734 5.279457 28.217468 14.676949c7.483734 9.397491 11.688049 22.143219 11.688049 35.43329l0 0c0 27.67511 -17.866302 50.11023 -39.905518 50.11023l0 0c-22.039215 0 -39.905518 -22.43512 -39.905518 -50.11023z" fill-rule="evenodd"/><path fill="#000000" fill-opacity="0.0" d="m37.795277 164.91628l0 0c0 -27.675125 17.866306 -50.110237 39.905514 -50.110237l0 0c10.583595 0 20.733719 5.279457 28.217453 14.676949c7.483734 9.397491 11.688057 22.143219 11.688057 35.43329l0 0c0 27.67511 -17.86631 50.11023 -39.90551 50.11023l0 0c-22.039207 0 -39.905514 -22.43512 -39.905514 -50.11023z" fill-rule="evenodd"/><path stroke="#000000" stroke-width="12.0" stroke-linejoin="round" stroke-linecap="butt" d="m37.795277 164.91628l0 0c0 -27.675125 17.866306 -50.110237 39.905514 -50.110237l0 0c10.583595 0 20.733719 5.279457 28.217453 14.676949c7.483734 9.397491 11.688057 22.143219 11.688057 35.43329l0 0c0 27.67511 -17.86631 50.11023 -39.90551 50.11023l0 0c-22.039207 0 -39.905514 -22.43512 -39.905514 -50.11023z" fill-rule="evenodd"/><path fill="#000000" fill-opacity="0.0" d="m191.47774 176.73431c-6.8608856 1.4349213 -30.97371 3.0450287 -41.165237 8.609451c-10.191528 5.5644226 -11.502579 17.206177 -19.983963 24.77713c-8.481377 7.570938 -21.455193 13.734543 -30.904305 20.64853c-9.44912 6.913986 -20.456604 13.778702 -25.790382 20.835373c-5.333786 7.056671 -6.83239 13.755463 -6.212311 21.504608c0.6200714 7.7491455 3.3414383 16.609924 9.932762 24.990173c6.5913315 8.38028 20.279076 19.0289 29.615181 25.291473c9.336113 6.2625427 18.328987 10.450165 26.40149 12.283813c8.0724945 1.8336487 14.459457 1.0317078 22.033524 -1.2819824c7.574051 -2.3136902 17.280579 -10.0841675 23.410812 -12.600098c6.130234 -2.5159607 11.142166 -2.0796814 13.37059 -2.4956055" fill-rule="evenodd"/><path stroke="#000000" stroke-width="12.0" stroke-linejoin="round" stroke-linecap="butt" d="m191.47774 176.73431c-6.8608856 1.4349213 -30.97371 3.0450287 -41.165237 8.609451c-10.191528 5.5644226 -11.502579 17.206177 -19.983963 24.77713c-8.481377 7.570938 -21.455193 13.734543 -30.904305 20.64853c-9.44912 6.913986 -20.456604 13.778702 -25.790382 20.835373c-5.333786 7.056671 -6.83239 13.755463 -6.212311 21.504608c0.6200714 7.7491455 3.3414383 16.609924 9.932762 24.990173c6.5913315 8.38028 20.279076 19.0289 29.615181 25.291473c9.336113 6.2625427 18.328987 10.450165 26.40149 12.283813c8.0724945 1.8336487 14.459457 1.0317078 22.033524 -1.2819824c7.574051 -2.3136902 17.280579 -10.0841675 23.410812 -12.600098c6.130234 -2.5159607 11.142166 -2.0796814 13.37059 -2.4956055" fill-rule="evenodd"/><path fill="#000000" fill-opacity="0.0" d="m188.51884 176.6956c6.745056 1.436615 30.448898 3.052002 40.47032 8.619736c10.021423 5.567749 11.316727 17.212372 19.658188 24.786728c8.341446 7.574356 21.09819 13.741974 30.39058 20.659424c9.292389 6.91745 20.116608 13.78595 25.363708 20.845276c5.2470703 7.0593414 6.7239685 13.759933 6.1187744 21.510696c-0.6051941 7.7507324 -3.275299 16.612915 -9.749878 24.993744c-6.474579 8.380798 -19.923676 19.029022 -29.097595 25.291046c-9.173889 6.2620544 -18.01155 10.4487915 -25.9458 12.2812195c-7.93425 1.8323975 -14.213104 1.0289612 -21.659714 -1.2867737c-7.4466095 -2.3157349 -16.992508 -10.089905 -23.019958 -12.607666c-6.0274353 -2.5177612 -10.953918 -2.0823975 -13.144699 -2.4988708" fill-rule="evenodd"/><path stroke="#000000" stroke-width="12.0" stroke-linejoin="round" stroke-linecap="butt" d="m188.51884 176.6956c6.745056 1.436615 30.448898 3.052002 40.47032 8.619736c10.021423 5.567749 11.316727 17.212372 19.658188 24.786728c8.341446 7.574356 21.09819 13.741974 30.39058 20.659424c9.292389 6.91745 20.116608 13.78595 25.363708 20.845276c5.2470703 7.0593414 6.7239685 13.759933 6.1187744 21.510696c-0.6051941 7.7507324 -3.275299 16.612915 -9.749878 24.993744c-6.474579 8.380798 -19.923676 19.029022 -29.097595 25.291046c-9.173889 6.2620544 -18.01155 10.4487915 -25.9458 12.2812195c-7.93425 1.8323975 -14.213104 1.0289612 -21.659714 -1.2867737c-7.4466095 -2.3157349 -16.992508 -10.089905 -23.019958 -12.607666c-6.0274353 -2.5177612 -10.953918 -2.0823975 -13.144699 -2.4988708" fill-rule="evenodd"/></g></svg>
